<?xml version="1.0" encoding="utf-8"?>
<!-- Generator: Adobe Illustrator 19.1.0, SVG Export Plug-In . SVG Version: 6.00 Build 0)  -->
<svg version="1.1" id="Layer_1" xmlns="http://www.w3.org/2000/svg" xmlns:xlink="http://www.w3.org/1999/xlink" x="0px" y="0px"
	 width="376px" height="82px" viewBox="0 0 376 82" style="enable-background:new 0 0 376 82;" xml:space="preserve">
<style type="text/css">
	.st0{fill:#350E00;}
	.st1{fill:#DC4814;}
	.st2{fill:#EFAA00;}
	.st3{fill:#EC7A0B;}
	.st4{fill:#723D14;}
	.st5{fill:#92C01F;}
	.st6{fill:#94871B;}
	.st7{fill:#8EC9E7;}
	.st8{fill:#CA005D;}
</style>
<g>
	<path class="st0" d="M133.7,56h-5.6c0,0-2.7,0-2.7-3.1V38.8h-17.2v15.6c0,0,0,1.5-1.2,1.5h-5c-3.3,0-2.9-3.7-2.9-3.7V16.8
		c0-3.3,3.3-3.3,3.3-3.3h4.8c1.2,0,1,1,1,1v15.8h17.2V17.2c0,0-0.4-3.5,3.5-3.7h4.8c1,0,1.2,1.2,1.2,1.2v40.1
		C134.9,54.6,134.9,56,133.7,56z"/>
	<path class="st0" d="M156.5,56.6c-10.2,0-17.6-7.5-17.6-16.8v-0.2c0-9.3,7.5-17,17.6-17c10.2,0,17.6,7.5,17.6,16.8v0.2
		C174.2,49.2,166.5,56.6,156.5,56.6z M165,39.8c0-4.8-3.5-8.9-8.5-8.9c-5.2,0-8.5,4.2-8.5,8.9V40c0,4.8,3.5,8.9,8.5,8.9
		C161.9,48.8,165,44.6,165,39.8L165,39.8z"/>
	<path class="st0" d="M186.4,24.7V28c2.1-2.7,5-5.2,9.5-5.2c4.4,0,7.5,1.9,9.1,5.2c2.9-3.3,6.2-5.2,10.8-5.2c6.9,0,11,4.2,11,12
		v19.3c0,0,0.2,1.9-1.5,1.9h-5c0,0-2.9,0-2.9-3.1V37.8c0-4.4-1.9-6.6-5.4-6.6s-5.6,2.3-5.6,6.6v16.6c0,1.9-1.2,1.7-1.2,1.7h-4.2
		c0,0-3.7-0.2-3.7-4.2V38c0-4.4-1.9-6.6-5.4-6.6s-5.6,2.3-5.6,6.6v16.6c0,1.7-1.2,1.7-1.2,1.7h-4.8c0,0-3.3,0.2-3.3-3.5V27.2
		c0-3.7,3.9-3.7,3.9-3.7h3.9C186.2,23.4,186.4,24.7,186.4,24.7z"/>
	<path class="st0" d="M315.1,64.7v1.9c1-1.5,2.5-2.7,5-2.7c2.3,0,3.9,1,4.8,2.7c1.5-1.7,3.3-2.7,5.6-2.7c3.5,0,5.6,2.1,5.6,6.2v10
		c0,0,0.2,1-0.6,1H333c0,0-1.5,0-1.5-1.7v-7.9c0-2.3-1-3.3-2.7-3.3c-1.9,0-2.9,1.2-2.9,3.3v8.5c0,0.8-0.6,0.8-0.6,0.8H323
		c0,0-1.9-0.2-1.9-2.3v-7.3c0-2.3-1-3.3-2.7-3.3c-1.9,0-2.9,1.2-2.9,3.3v8.5c0,0.8-0.6,0.8-0.6,0.8h-2.5c0,0-1.7,0-1.7-1.9V65.8
		c0-1.9,2.1-1.9,2.1-1.9h2.1C315.1,64.1,315.1,64.7,315.1,64.7z"/>
	<path class="st0" d="M259.3,51.5c-2.9,3.3-7.1,5.2-12.7,5.2c-9.8,0-17-6.9-17-16.8v-0.2c0-9.3,6.6-17,16.2-17
		c10.2,0,15.4,7.5,15.8,16.2c0,0,0.8,3.9-3.5,3.9h-19.3c0.8,4.2,3.7,6.4,7.9,6.4c1.9,0,3.5-0.2,4.8-1c3.3-2.3,5.8,0.2,5.8,0.2
		l1.7,1.5C259.7,50.4,259.3,51.5,259.3,51.5z M252.4,36.1c-0.8-3.5-3.1-6-6.6-6c-3.7,0-6.2,2.7-7.1,6.9h12.9
		C252.6,37.1,252.4,36.1,252.4,36.1z"/>
	<path class="st0" d="M262.8,50.6l1.5-2.3c2.3-2.5,5.4-0.6,5.4-0.6c2.3,1.2,4.8,1.7,6.6,1.7c2.7,0,3.9-1,3.9-2.5v-0.2
		c0-2.1-3.1-2.7-6.6-3.7c-4.6-1.2-9.8-3.5-9.8-9.8V33c0-6.6,5.4-10.4,11.8-10.4c3.7,0,7.9,1.2,11.4,3.3c0,0,0.8,0.8,0.2,1.5
		l-1.7,2.9c0,0-1.2,2.5-4.4,1c-2.3-1-4.4-1.5-6-1.5c-2.3,0-3.3,1-3.3,2.3v0.2c0,1.9,3.1,2.7,6.6,3.9c4.6,1.5,9.8,3.7,9.8,9.8v0.2
		c0,7.3-5.4,10.6-12.5,10.6c-4.4,0-8.9-1.2-13.1-4.4C263,52.3,262,51.7,262.8,50.6z"/>
	<path class="st0" d="M302.3,16.4v7.1h6.6c0.8,0,1,1,1,1v4.2c0,0,0,2.7-2.9,2.7h-4.8v13.9c0,2.1,0.8,3.1,2.9,3.1
		c1,0,2.1-0.2,2.9-0.4c0,0,1.7-0.8,1.7,1v4.4c0,1-1,1.7-1,1.7c-1.7,0.8-3.7,1.2-6.2,1.2c-5.6,0-9.5-2.3-9.5-9.8V31.3h-2.7
		c0,0-1,0-1-1.2v-5c0-1.7,1.7-1.7,1.7-1.7h2.1v-4.2c0-4.2,4.6-4.2,4.6-4.2h3.1C302,15.1,302.3,16.4,302.3,16.4z"/>
	<path class="st0" d="M332.1,54.6v-2.1c-2.3,2.5-5.4,4.2-9.8,4.2c-6.2,0-11.2-3.5-11.2-10v-0.2c0-7.1,5.4-10.4,13.1-10.4
		c3.3,0,5.6,0.6,7.9,1.2v-0.6c0-3.7-2.3-6-7.1-6c-3.1,0-5.4,0.4-7.9,1.5c0,0-1.2,0.2-1.5-0.6l-0.8-2.7c0,0-1.2-3.3,2.1-4.4
		c2.7-0.8,5.6-1.5,9.5-1.5c10.2,0,14.5,5.2,14.5,14.1v14.5c0,0,0,4.4-3.9,4.4h-3.7C333.4,56,332.1,55.8,332.1,54.6z M332.4,42.9
		c-1.7-0.6-3.7-1.2-5.8-1.2c-3.9,0-6.4,1.7-6.4,4.6v0.2c0,2.5,2.1,3.9,5,3.9c4.4,0,7.3-2.3,7.3-5.6L332.4,42.9L332.4,42.9z"/>
	<path class="st0" d="M375.9,24.9l-12,32c-2.5,6.6-5.2,9.1-10.8,9.1c-2.9,0-5-0.6-7.1-1.7c0,0-1-0.4-0.4-1.9l1.7-3.3
		c0,0,0.6-1.7,2.3-1.2c0.8,0.2,1.7,0.6,2.5,0.6c1.7,0,2.5-0.4,3.3-2.1l-12.2-31.1c-0.6-1.2,0.6-1.5,0.6-1.5h7.3c1,0,1.7,1.5,1.7,1.5
		l6.9,20.8l6.4-19.7c0.6-2.1,2.9-2.3,2.9-2.3h6C376.4,23.4,375.9,24.9,375.9,24.9z"/>
	<g>
		<path class="st0" d="M289.8,78.6c-1.5,1.5-3.3,2.5-6.4,2.5c-5,0-8.7-3.9-8.7-8.7l0,0c0-4.8,3.7-8.7,8.7-8.7c2.7,0,4.6,0.8,6,2.3
			c0,0,0.6,0.6,0,1.2l-1.9,1.9c0,0-0.4,0.6-1.2,0c-0.8-0.6-1.9-1.2-3.1-1.2c-2.3,0-4.2,2.1-4.2,4.6l0,0c0,2.5,1.7,4.6,4.4,4.6
			c1,0,1.7-0.4,2.5-0.6c1.9-0.8,2.9,0.2,2.9,0.2l1,1C290.4,78.2,289.8,78.6,289.8,78.6z"/>
		<path class="st0" d="M299.8,81.3c-5.2,0-9.1-3.9-9.1-8.7l0,0c0-4.8,3.9-8.7,9.1-8.7c5.2,0,9.1,3.9,9.1,8.7l0,0
			C308.9,77.4,305,81.3,299.8,81.3z M304.3,72.6c0-2.5-1.9-4.6-4.4-4.6c-2.7,0-4.4,2.1-4.4,4.6l0,0c0,2.5,1.9,4.6,4.4,4.6
			C302.7,77.2,304.3,75.1,304.3,72.6L304.3,72.6z"/>
	</g>
	<path class="st0" d="M268.6,76.4h3.1c1.2,0,1,1.2,1,1.2v2.9c0,0,0,0.8-0.8,0.8h-2.3c0,0-2.1,0-2.1-2.1V77
		C267.8,76.4,268.6,76.4,268.6,76.4z"/>
	<path class="st1" d="M33.6,76.2c0,0,4.4,2.9,5.6,3.5c0,0,4.6-3.5,6-4.6l-0.8-6.6l-5,0.4l-0.6,4.4L37.6,73l-0.2-4.4L33,68.3
		C33,68.3,33.4,74.5,33.6,76.2z"/>
	<polygon class="st1" points="30.9,73.3 31.2,68.5 22.8,64.7 	"/>
	<path class="st1" d="M17.9,60c0,0,3.7,2.7,4.8,3.1l3.9-3.1l1.7,0.4l-3.1,3.5l3.7,1.7c0,0,2.7-1.9,4.2-2.7c1.5-0.8,1.5-0.8,1.5-0.8
		s-0.4-2.7-0.2-4.4c0-1.5,0-2.7,0-2.7s-2.5-0.2-3.7-0.6c-1.5-0.4-2.3-0.8-2.3-0.8L17.9,60z"/>
	<path class="st1" d="M13.3,53.1l4.2-2.3l1.2,1.7L15.4,55l1.9,2.5c0,0,6-3.3,10-5.2c0,0-1.2-4.2-0.8-6c0,0-2.1,0-3.1-0.4
		c-1.2-0.2-3.3-1.2-3.3-1.2l-9.1,5.8"/>
	<path class="st1" d="M8.7,48.8l-3.9-6.9l0.6-2.3L6,36.9h9.1c0,0,1.5,1.7,2.1,2.7c0.6,1.2,2.1,3.7,2.1,3.7s-3.3,1-4.6,1.9l-2.3-3.1
		L11,42.9l1.9,3.3L8.7,48.8z"/>
	<path class="st2" d="M0.8,32.4c0,0,3.1-6.6,3.1-7.5c0.2-0.8,0-1.5,0-1.5l6.9-0.8c0,0,1.2,1.5,1.9,2.1c0.6,0.8,2.1,1.9,2.1,1.9
		l-2.1,9.3l-5.2-1l1.9-4.4l-1-0.6L5,34.2L0.8,32.4z"/>
	<polygon class="st2" points="0.4,29.9 2.9,24.5 0,24.9 	"/>
	<path class="st2" d="M10.8,21.6L0,22.4c0,0-0.2-6.6,3.3-11.4l3.7,1.5l1.9,4.2L5.4,17l0.4,1.7l3.5-0.4L10.8,21.6z"/>
	<path class="st2" d="M10.8,21.6L0,22.4c0,0-0.4-6,3.3-11.4l3.7,1.5l1.9,4.2L5.4,17l0.4,1.7l3.5-0.4L10.8,21.6z"/>
	<path class="st2" d="M8.5,12l1.7-8.9H9.4c0,0-2.7,1.9-5,5.2L8.5,12z"/>
	<path class="st2" d="M12.7,8.9l1.7-7.3c0,0,2.7-1.5,8.3-0.8l0.2,0.6c0,0-2.5,4.2-3.1,6.9L17,8.5l1-4.6h-1l-1.5,4.6L12.7,8.9z"/>
	<path class="st3" d="M15.4,10.1l-1.5,3.7l1.9,0.2l0.8-4.4l3.3-0.2c0,0-0.4,6.4,0.2,10.2c0,0-4.6,1.5-5.6,2.5c0,0-2.5-2.7-3.3-4.2
		l2.1-8.1C12.9,9.9,14.8,10.4,15.4,10.1z"/>
	<path class="st3" d="M26.4,2.1l-4.8,8.1L21,16.6c0,0,6.2-3.9,8.1-4.8c0,0,1-3.9,1.2-5.2c0.4-1.2,1.5-2.7,1.5-2.7l-2.1-0.6l-1,2.3
		L27,5l1.5-2.1L26.4,2.1z"/>
	<path class="st3" d="M35.3,6.8L33,11.2l2.9,7.5l2.1-1.2l-0.6-2.3l1-0.4l1,2.5l2.5-1l-2.1-6.6C39.9,9.5,35.7,7.4,35.3,6.8z"/>
	<path class="st3" d="M40.7,8.7l3.7,4.4l4.4,1.2l0.8-5c0,0-2.9-2.5-4.8-4.6L43,6.4l2.9,2.5l-0.8,0.8l-3.1-2.5L40.7,8.7z"/>
	<path class="st3" d="M46.7,4.1l5.6,6.6l3.1,0.8V9.5c0,0-5-3.9-6.9-6.4L46.7,4.1z"/>
	<path class="st3" d="M50.5,2.7L54.6,6c0,0,1.2-2.9,5.4-5.2C60,0.8,53.8,0.8,50.5,2.7z"/>
	<path class="st4" d="M62.1,0.8c0,0-3.5,3.1-4.4,4.6l-1.2,4.4l2.9,0.2L60,6.6h1.5L61,9.9l2.1,0.2l1.2-4.8
		C64.2,5.4,62.5,2.9,62.1,0.8z"/>
	<path class="st4" d="M64.4,1.4c0,0,1.2,5.8,1.2,8.5c0,0,3.9,0.8,5.4,1.2c0,0,1.7-1.9,2.9-3.1l-1.2-1.7c0,0-1.7-1.5-2.7-2.1l0.2,1.5
		h-2.1l-0.2-3.1C67.9,2.7,66.9,1.4,64.4,1.4z"/>
	<path class="st5" d="M74.7,9.1l-3.1,3.1c0,0,2.1,4.2,2.7,6.6l1.5,1l-0.2-2.1l1.2,0.6v2.5l1.5,0.8C78.5,21.8,79.7,14.7,74.7,9.1z"/>
	<path class="st5" d="M78.3,22.8c0,0-3.1-0.6-4.4-1.9l-5.2,1.2l2.5,3.7c0,0,3.3,1,6.2,0.6l0.2-1l-2.5-0.4l0.4-1.2l2.5,0.6L78.3,22.8
		z"/>
	<path class="st6" d="M71.6,27.8c0,0-0.8,5.6-0.6,6.9c0,0,2.7,2.1,4.2,2.7c0,0,2.1-3.1,3.1-9.8l-1.9-0.2l-0.2,3.3l-1.9,0.6l0.2-3.7
		L71.6,27.8z"/>
	<path class="st6" d="M74.3,39.6c0,0-1.9,3.1-2.9,5.4c0,0-5.2,0-7.5,0l-0.4-3.5h4.2v-1l-3.9-0.2l0.2-2.9l6.9-0.8
		C70.8,36.5,73.1,39,74.3,39.6z"/>
	<path class="st7" d="M62.9,46.9c0,0,1.2,6.4,0.6,9.3c0,0,5.4-6,7.3-9.3H62.9z"/>
	<polygon class="st7" points="62.1,57.9 61.5,49.2 56.9,54.4 54.8,62 57.7,63.3 	"/>
	<path class="st8" d="M55.9,65.4c0,0-3.1,3.5-4.6,4.8l-4.8,1.2l-0.6-2.5l3.5-0.6L49,67.6l-3.7,0.4l-0.4-2.5c0,0,6.2-1.7,7.9-2.3
		C52.9,63.1,54.2,64.7,55.9,65.4z"/>
	<path class="st1" d="M33.2,66.6c0,0,2.3-2.1,3.5-3.7c1.5-1.5,2.1-2.9,2.1-2.9s1.9,5,3.3,6.9c0,0-1.2-0.2-3.5,0
		C36.3,66.8,33.2,66.6,33.2,66.6z"/>
	<polygon class="st1" points="29.9,52.1 33.6,53.5 44.4,50.4 34.1,45.2 29.3,47.1 29.7,49.2 32.6,49.2 32.6,50.4 29.7,50.6 	"/>
	<path class="st4" d="M44.6,46.9c0,0-5.2-1.9-6.9-2.3l-0.2-6l8.7-5.4c0,0,5,6.6,6.4,7.7L44.6,46.9z M45.3,41.7l0.6,0.8l2.7-1.7
		l-1-1.2L45.3,41.7z M43.4,39l2.3-1.2l-1-1.2L42.6,38L43.4,39z"/>
	<path class="st4" d="M53.2,36.3l2.5-1.7l0.6,1.5l-2.5,1.5L53.2,36.3z M62.5,35.1c-0.4-1.9-0.8-7.9-0.8-7.9l-6.4,0.4L48,31.9
		c0,0,1.5,1.7,2.3,2.9C51.1,36.1,54,40,54,40L62.5,35.1z M50.9,32.6l2.7-1.5l1,1l-2.7,2.1L50.9,32.6z"/>
	<path class="st8" d="M42.6,63.7l9.5-1.7c0,0,1.7-6,2.5-7.7l-6.2-2.9c0,0-7.1,1-10.4,2.1l1.7,3.5l4.2-0.2l0.2,2.1l-3.9,0.8
		L42.6,63.7z"/>
	<path class="st8" d="M47.6,48.1l6.2-6.2l7.3-2.7v6.4c0,0-4.6,5.4-6,7.5c0,0-2.1-1.9-2.9-2.3l2.9-3.5l-2.1-1l-3.3,3.3L47.6,48.1z"/>
	<path class="st1" d="M32,43.6c0,0,1-3.7,2.7-5.8c0,0-4.8-1.2-7.3-3.1l-8.9,2.5l1,2.9l4.4-0.4l0.4,2.1l-3.9,0.8l0.2,0.8
		c0,0,3.3,1.5,5,1.7C27,45.4,32,43.6,32,43.6z"/>
	<path class="st3" d="M35.3,36.3l7.9-5.2l-1-1.9l-3.5,2.1l-1.5-1.2l4.6-2.1c0,0-0.6-2.3-0.8-3.5c0,0-6.6,3.3-8.9,3.5l-2.5,6
		C29.3,33.8,34.7,35.9,35.3,36.3z"/>
	<path class="st3" d="M26,28.4l8.3-9.3l-1.9-6.9l-5.8,2.1l-8.1,8.3l2.9,2.3l4.4-4.2l1.9,1.2l-4.8,3.9C22.8,25.7,25.3,27.6,26,28.4z"
		/>
	<path class="st3" d="M26.2,32.2l-0.6-2.1c0,0-3.5-1.2-4.4-2.3c-0.8-1-3.1-2.9-3.1-2.9s-2.1,6.6-2.7,7.9l1,2.3l4.2-1.2l-1.2-3.1
		l1.5-0.4l1.7,3.3L26.2,32.2z"/>
	<polygon class="st3" points="45.9,20.1 46.9,17.2 44.4,16 35.9,20.5 33,24.1 33,25.5 	"/>
	<path class="st4" d="M55.2,25.5l0.4-12l3.5-2.3l5,3.1c0,0-1.5,7.5-1.5,11.4h-3.3l0.2-4.2l-1.5-0.2l-0.2,4.2L55.2,25.5z"/>
	<path class="st5" d="M66.2,19.7l-0.8-6.6l0.8-2.5l4.8,1.7c0,0,0.4,2.9,1.5,4.2c1,1.5,1.5,2.9,1.5,2.9l-3.1,0.4l-0.6-2.5h-1.5
		l0.6,2.9L66.2,19.7z"/>
	<path class="st5" d="M70,34.2c0,0-0.2-6-0.2-7.9c0,0-3.9-5.2-4.6-6l-1.7,6.9l0.4,7.3l2.9-0.4l-0.2-3.9l1.5-0.2l0.2,4.2L70,34.2z"/>
	<path class="st4" d="M46.3,30.5l6.6-3.3l0.6-5.4c0,0-2.3-0.6-3.9-2.5l-6.9,3.5l1,3.5l3.5-1.7l0.4,1.9l-3.3,1L46.3,30.5z"/>
	<polygon class="st3" points="52.9,19.7 48.2,16.4 50.2,14.1 53.4,13.1 54.4,17.2 	"/>
	<polygon class="st1" points="3.5,39.6 4,36.3 1.5,34.4 	"/>
</g>
</svg>
